<svg width="16" height="18" viewBox="0 0 16 18" fill="none" xmlns="http://www.w3.org/2000/svg">
<path d="M7.41723 1.8237C7.62993 1.70553 7.73628 1.64645 7.84891 1.62329C7.94859 1.60278 8.05141 1.60278 8.15109 1.62329C8.26372 1.64645 8.37007 1.70553 8.58277 1.8237L14.1328 4.90704C14.3574 5.03184 14.4697 5.09424 14.5515 5.18299C14.6239 5.26151 14.6786 5.35457 14.7121 5.45595C14.75 5.57055 14.75 5.69904 14.75 5.95603V12.0439C14.75 12.3008 14.75 12.4293 14.7121 12.5439C14.6786 12.6453 14.6239 12.7384 14.5515 12.8169C14.4697 12.9056 14.3574 12.968 14.1328 13.0928L8.58277 16.1762C8.37007 16.2943 8.26372 16.3534 8.15109 16.3766C8.05141 16.3971 7.94859 16.3971 7.84891 16.3766C7.73628 16.3534 7.62993 16.2943 7.41723 16.1762L1.86723 13.0928C1.64259 12.968 1.53026 12.9056 1.44847 12.8169C1.37612 12.7384 1.32136 12.6453 1.28786 12.5439C1.25 12.4293 1.25 12.3008 1.25 12.0439V5.95602C1.25 5.69904 1.25 5.57055 1.28786 5.45595C1.32136 5.35457 1.37612 5.26151 1.44847 5.18299C1.53026 5.09424 1.64259 5.03184 1.86723 4.90704L7.41723 1.8237Z" stroke="white" stroke-opacity="0.5" stroke-width="1.5" stroke-linecap="round" stroke-linejoin="round"/>
</svg>
