<svg width="15" height="15" viewBox="0 0 15 15" fill="none" xmlns="http://www.w3.org/2000/svg">
<path d="M0.666656 14.3334L4.36617 12.9105C4.6028 12.8195 4.72111 12.774 4.8318 12.7146C4.93012 12.6618 5.02386 12.6009 5.11202 12.5324C5.21127 12.4554 5.30091 12.3658 5.48018 12.1865L13 4.66671C13.7364 3.93033 13.7364 2.73642 13 2.00004C12.2636 1.26366 11.0697 1.26366 10.3333 2.00004L2.81351 9.51985C2.63424 9.69912 2.54461 9.78876 2.46758 9.88801C2.39917 9.97617 2.33826 10.0699 2.28548 10.1682C2.22606 10.2789 2.18056 10.3972 2.08954 10.6339L0.666656 14.3334ZM0.666656 14.3334L2.03874 10.766C2.13692 10.5107 2.18601 10.3831 2.27022 10.3246C2.3438 10.2735 2.43486 10.2542 2.52285 10.271C2.62355 10.2902 2.72025 10.3869 2.91365 10.5803L4.41971 12.0864C4.61311 12.2798 4.70981 12.3765 4.72903 12.4772C4.74584 12.5652 4.72651 12.6562 4.67542 12.7298C4.61695 12.814 4.48932 12.8631 4.23404 12.9613L0.666656 14.3334Z" stroke="white" stroke-opacity="0.5" stroke-width="1.3" stroke-linecap="round" stroke-linejoin="round"/>
</svg>
